<?xml version="1.0" standalone="no"?><!DOCTYPE svg PUBLIC "-//W3C//DTD SVG 1.1//EN" "http://www.w3.org/Graphics/SVG/1.1/DTD/svg11.dtd"><svg t="1769529562952" class="icon" viewBox="0 0 1024 1024" version="1.1" xmlns="http://www.w3.org/2000/svg" p-id="2314" width="200" height="200" xmlns:xlink="http://www.w3.org/1999/xlink"><path d="M556.02173913 776.13043478a88.04347826 88.04347826 0 1 1 0 176.08695652 88.04347826 88.04347826 0 0 1 0-176.08695652z m-275.53206522-132.06521739a110.05434783 110.05434783 0 1 1 0 220.10869565 110.05434783 110.05434783 0 0 1 0-220.10869565z m509.68369566 22.01086957a88.04347826 88.04347826 0 1 1 0 176.08695652 88.04347826 88.04347826 0 0 1 0-176.08695652zM886.18478261 482.02119565a66.0326087 66.0326087 0 1 1 0 132.06521739 66.0326087 66.0326087 0 0 1 0-132.06521739zM181.83695652 335.91304348a110.05434783 110.05434783 0 1 1 0 220.10869565 110.05434783 110.05434783 0 0 1 0-220.10869565z m672.91630435-34.90923913a44.02173913 44.02173913 0 1 1 0 88.04347826 44.02173913 44.02173913 0 0 1 0-88.04347826zM423.95652174 71.7826087a132.06521739 132.06521739 0 1 1 0 264.13043478 132.06521739 132.06521739 0 0 1 0-264.13043478z m330.16304348 132.06521739a22.01086957 22.01086957 0 1 1 0 44.02173913 22.01086957 22.01086957 0 0 1 0-44.02173913z" fill="#6b9eee" p-id="2315"></path></svg>